<?xml version="1.0" standalone="no"?>
<!DOCTYPE svg PUBLIC "-//W3C//DTD SVG 20010904//EN"
 "http://www.w3.org/TR/2001/REC-SVG-20010904/DTD/svg10.dtd">
<svg version="1.0" xmlns="http://www.w3.org/2000/svg"
 width="24.000000pt" height="24.000000pt" viewBox="0 0 24.000000 24.000000"
 preserveAspectRatio="xMidYMid meet">

<g transform="translate(0.000000,24.000000) scale(0.100000,-0.100000)"
fill="#000000" stroke="none">
<path d="M41 199 c-45 -44 -45 -114 0 -158 26 -26 38 -31 79 -31 41 0 53 5 79
31 26 26 31 38 31 79 0 41 -5 53 -31 79 -44 45 -114 45 -158 0z m121 -36 c37
-36 49 -63 28 -63 -5 0 -10 -13 -10 -30 0 -25 -4 -30 -25 -30 -18 0 -25 5 -25
20 0 11 -4 20 -10 20 -5 0 -10 -9 -10 -20 0 -15 -7 -20 -25 -20 -21 0 -25 5
-25 30 0 17 -4 30 -10 30 -20 0 -9 25 27 62 20 21 39 38 42 38 3 0 22 -17 43
-37z"/>
</g>
</svg>
